<?xml version="1.0" encoding="UTF-8"?>
<svg version="1.1" xmlns="http://www.w3.org/2000/svg" width="300" height="70">
<path d="M0 0 C23.1 0 46.2 0 70 0 C70 23.1 70 46.2 70 70 C46.9 70 23.8 70 0 70 C0 46.9 0 23.8 0 0 Z " fill="#FDFBFB" transform="translate(0,0)"/>
<path d="M0 0 C23.1 0 46.2 0 70 0 C70 23.1 70 46.2 70 70 C64.39 70 58.78 70 53 70 C48.6553181 65.6553181 46.7223939 63.14229959 44 58 C44.4846875 57.62230469 44.969375 57.24460938 45.46875 56.85546875 C55.69195757 48.46064253 63.46605343 37.75715694 64.9375 24.4375 C65.22914678 18.02127073 64.80827166 13.16195826 60.44921875 8.25390625 C53.8748901 2.17520327 47.24350463 1.59842384 38.52734375 1.75390625 C25.58492037 2.65686602 15.11867887 9.39692897 5.99609375 18.2421875 C4 20 4 20 2 20 C1.67 20.99 1.34 21.98 1 23 C0.67 23 0.34 23 0 23 C0 15.41 0 7.82 0 0 Z " fill="#FEFCFC" transform="translate(0,0)"/>
<path d="M0 0 C3.67125 -0.061875 7.3425 -0.12375 11.125 -0.1875 C12.84420654 -0.22846802 12.84420654 -0.22846802 14.59814453 -0.27026367 C24.50955629 -0.35107739 24.50955629 -0.35107739 29 3 C30.57957407 5.86946846 30.93869714 8.73980257 31 12 C29.71648954 15.46547824 28.04401275 17.93398088 26 21 C26.556875 21.61875 27.11375 22.2375 27.6875 22.875 C30.70004107 26.94600145 35 32.76042785 35 38 C31.11607903 38.75852344 27.84501503 39.04958518 24 38 C21.67171186 35.08526334 20.23326333 32.22879565 18.73046875 28.8203125 C16.9719134 25.27594102 16.9719134 25.27594102 11 24 C11 28.62 11 33.24 11 38 C7.37 38 3.74 38 0 38 C0 25.46 0 12.92 0 0 Z M11 8 C11 10.97 11 13.94 11 17 C16.01535052 16.67039784 16.01535052 16.67039784 20 14 C19.71016731 10.69316534 19.71016731 10.69316534 18 8 C15.66702567 7.95907063 13.33294775 7.95758277 11 8 Z " fill="#000000" transform="translate(228,26)"/>
<path d="M0 0 C3.63 0 7.26 0 11 0 C11.01981934 0.80219971 11.03963867 1.60439941 11.06005859 2.4309082 C11.15519495 6.05844177 11.2649208 9.68539045 11.375 13.3125 C11.4059375 14.57513672 11.436875 15.83777344 11.46875 17.13867188 C11.50742188 18.34716797 11.54609375 19.55566406 11.5859375 20.80078125 C11.6173584 21.91622314 11.6487793 23.03166504 11.68115234 24.1809082 C11.805249 27.20368786 11.805249 27.20368786 14 30 C16.3431213 29.74438677 18.67843403 29.40729228 21 29 C22.36839363 26.26321275 22.21634818 23.95735576 22.31640625 20.8984375 C22.35830078 19.68671875 22.40019531 18.475 22.44335938 17.2265625 C22.48267578 15.95554687 22.52199219 14.68453125 22.5625 13.375 C22.60568359 12.09625 22.64886719 10.8175 22.69335938 9.5 C22.79969886 6.33344652 22.90172833 3.16681247 23 0 C26.63 0 30.26 0 34 0 C34.05411209 4.18767451 34.09373068 8.37464451 34.125 12.5625 C34.14175781 13.74392578 34.15851563 14.92535156 34.17578125 16.14257812 C34.25452932 30.19910842 34.25452932 30.19910842 30.59765625 34.7421875 C24.17904819 39.47856495 18.78528516 39.56713998 11 39 C6.22048279 37.37837809 3.81066526 35.16394853 1 31 C-0.11911712 27.64264863 -0.11365586 25.11794614 -0.09765625 21.58203125 C-0.09443359 20.32841797 -0.09121094 19.07480469 -0.08789062 17.78320312 C-0.07951172 16.47287109 -0.07113281 15.16253906 -0.0625 13.8125 C-0.05748317 12.47721519 -0.05292059 11.14192859 -0.04882812 9.80664062 C-0.03702695 6.53771527 -0.02056297 3.26888009 0 0 Z " fill="#000000" transform="translate(186,26)"/>
<path d="M0 0 C9.24 0 18.48 0 28 0 C28 2.64 28 5.28 28 8 C22.39 8 16.78 8 11 8 C11 9.98 11 11.96 11 14 C16.28 14 21.56 14 27 14 C27 16.64 27 19.28 27 22 C21.72 22 16.44 22 11 22 C11 24.64 11 27.28 11 30 C16.61 30 22.22 30 28 30 C28 32.64 28 35.28 28 38 C18.76 38 9.52 38 0 38 C0 25.46 0 12.92 0 0 Z " fill="#000000" transform="translate(268,26)"/>
<path d="M0 0 C9.24 0 18.48 0 28 0 C28 2.64 28 5.28 28 8 C22.39 8 16.78 8 11 8 C11 9.98 11 11.96 11 14 C16.28 14 21.56 14 27 14 C27 16.64 27 19.28 27 22 C21.72 22 16.44 22 11 22 C11 24.64 11 27.28 11 30 C16.61 30 22.22 30 28 30 C28 32.64 28 35.28 28 38 C18.76 38 9.52 38 0 38 C0 25.46 0 12.92 0 0 Z " fill="#000000" transform="translate(112,26)"/>
<path d="M0 0 C1 1 1 1 1.09765625 3.06640625 C1.08605469 3.89011719 1.07445313 4.71382812 1.0625 5.5625 C1.05347656 6.38878906 1.04445313 7.21507812 1.03515625 8.06640625 C1.02355469 8.70449219 1.01195313 9.34257813 1 10 C-0.155 9.67 -1.31 9.34 -2.5 9 C-6.77500587 7.91598066 -10.60361453 7.84298623 -15 8 C-15.33 9.32 -15.66 10.64 -16 12 C-14.87980469 12.31453125 -13.75960937 12.6290625 -12.60546875 12.953125 C-11.132593 13.38466821 -9.65994854 13.81700137 -8.1875 14.25 C-7.44951172 14.45496094 -6.71152344 14.65992188 -5.95117188 14.87109375 C-2.69496488 15.84353566 -0.49367961 16.51517122 1.9609375 18.92578125 C4.04705248 23.09016867 4.40267466 27.22823152 3.375 31.75 C1.29884656 35.14734199 -1.46261025 37.23130512 -5 39 C-12.60882556 39.42936942 -19.71964202 39.32971455 -27 37 C-27 33.7 -27 30.4 -27 27 C-25.700625 27.495 -24.40125 27.99 -23.0625 28.5 C-18.19244173 30.14654351 -14.11236823 30.24344611 -9 30 C-8.67 28.68 -8.34 27.36 -8 26 C-8.556875 25.82984375 -9.11375 25.6596875 -9.6875 25.484375 C-23.69996483 21.03447063 -23.69996483 21.03447063 -26.203125 17.1171875 C-27.86414788 12.7040777 -27.56491226 8.49535597 -25.9375 4.1875 C-19.40430128 -3.1886921 -8.79928174 -1.68496884 0 0 Z " fill="#000000" transform="translate(101,26)"/>
<path d="M0 0 C5.45597757 0.13639944 8.41298439 2.37976968 12.2265625 5.99609375 C16.65415139 10.99907415 17.25093781 15.67037964 17.0625 22.25 C15.48651137 36.61638052 5.94757799 47.22724764 -4 57 C-3.45859375 57.72316406 -3.45859375 57.72316406 -2.90625 58.4609375 C-2.4421875 59.09257813 -1.978125 59.72421875 -1.5 60.375 C-1.0359375 61.00148437 -0.571875 61.62796875 -0.09375 62.2734375 C1 64 1 64 1 66 C1.99 66.33 2.98 66.66 4 67 C4 67.33 4 67.66 4 68 C-9.86 68 -23.72 68 -38 68 C-35.67963626 65.67963626 -34.03398287 65.21095074 -30.9375 64.1875 C-25.59595886 62.32007467 -20.83842824 59.91500368 -16 57 C-16.38414063 56.46890625 -16.76828125 55.9378125 -17.1640625 55.390625 C-17.64617188 54.68421875 -18.12828125 53.9778125 -18.625 53.25 C-19.11226562 52.55390625 -19.59953125 51.8578125 -20.1015625 51.140625 C-21 49 -21 49 -20.3046875 46.84375 C-18.57094439 44.39366992 -16.66315906 43.33157953 -14 42 C-13.34 42 -12.68 42 -12 42 C-10.68 44.64 -9.36 47.28 -8 50 C-3.42543389 46.49481298 -0.32808506 43.07896317 2.6875 38.1875 C3.07542725 37.56439941 3.46335449 36.94129883 3.86303711 36.29931641 C8.99496639 27.90042 11.05623393 20.94505971 10 11 C8.36492017 6.00274304 6.33951485 4.23474395 1.75 1.8125 C1.1725 1.544375 0.595 1.27625 0 1 C0 0.67 0 0.34 0 0 Z " fill="#CE4145" transform="translate(49,2)"/>
<path d="M0 0 C0 2.64 0 5.28 0 8 C-0.99 7.67 -1.98 7.34 -3 7 C-7.81292378 5.6332468 -12.52482651 5.21836627 -17.375 6.75 C-19.41880635 8.32215873 -20.02327769 9.61663061 -21 12 C-21.55346049 17.00556178 -21.80783186 22.64786061 -19 27 C-15.56067597 28.71966201 -10.78058219 28.33518564 -7 28 C-4.74867483 27.08431094 -4.74867483 27.08431094 -3 26 C-2.01 26 -1.02 26 0 26 C0 28.97 0 31.94 0 35 C-7.4152707 37.78351002 -16.06430724 38.73125744 -23.5 35.4375 C-28.34974831 32.56661305 -31.24237782 28.27286655 -33 23 C-33.6729211 15.55374198 -33.56792821 9.16000742 -29 3 C-21.14702992 -4.85297008 -9.43215206 -5.0304811 0 0 Z " fill="#000000" transform="translate(179,28)"/>
<path d="M0 0 C1.39120471 0.00015906 2.78241534 0.00585033 4.17358398 0.01586914 C4.90463852 0.01728409 5.63569305 0.01869904 6.38890076 0.02015686 C8.73253406 0.02577131 11.07607313 0.03832617 13.41967773 0.05102539 C15.00496282 0.05603853 16.59024939 0.06060176 18.17553711 0.06469727 C22.06945383 0.07574542 25.96329979 0.09301967 29.85717773 0.11352539 C27.98217773 4.86352539 27.98217773 4.86352539 26.85717773 7.11352539 C23.22717773 7.11352539 19.59717773 7.11352539 15.85717773 7.11352539 C15.66768555 8.34522461 15.66768555 8.34522461 15.47436523 9.60180664 C14.78198495 13.54136284 13.9079007 17.41097743 12.98217773 21.30102539 C12.80581787 22.04481445 12.62945801 22.78860352 12.44775391 23.55493164 C8.37324959 40.59745353 8.37324959 40.59745353 6.85717773 42.11352539 C3.85714329 42.25530396 0.85960538 42.1558131 -2.14282227 42.11352539 C-0.84181904 34.26000293 0.92124398 26.61261803 2.98217773 18.92602539 C3.25932617 17.87866211 3.53647461 16.83129883 3.82202148 15.75219727 C4.49662964 13.20496994 5.17635964 10.65909997 5.85717773 8.11352539 C2.55717773 7.78352539 -0.74282227 7.45352539 -4.14282227 7.11352539 C-4.18536583 5.11397793 -4.18363009 3.11310903 -4.14282227 1.11352539 C-3.14282227 0.11352539 -3.14282227 0.11352539 0 0 Z " fill="#444343" transform="translate(15.142822265625,17.886474609375)"/>
<path d="M0 0 C2.140625 1.15625 2.140625 1.15625 4.25 2.5 C4.95640625 2.9434375 5.6628125 3.386875 6.390625 3.84375 C7.18726563 4.41609375 7.18726563 4.41609375 8 5 C8 5.33 8 5.66 8 6 C-1.9 6 -11.8 6 -22 6 C-18.14323878 4.07161939 -14.56043916 2.93768415 -10.4375 1.78125 C-7.99684349 1.08833197 -7.99684349 1.08833197 -5.9375 -0.15625 C-3.45481757 -1.23741815 -2.49934693 -0.96873912 0 0 Z " fill="#FBF6F6" transform="translate(40,64)"/>
<path d="M0 0 C0 0.33 0 0.66 0 1 C-0.62003906 1.01417969 -1.24007812 1.02835937 -1.87890625 1.04296875 C-17.26000333 1.87135389 -31.32635048 7.77642006 -42 19 C-42.66 18.67 -43.32 18.34 -44 18 C-32.37114203 4.70987661 -17.32901272 -0.73335947 0 0 Z " fill="#D6797A" transform="translate(48,1)"/>
<path d="M0 0 C5.61189938 0.14029748 8.37095848 2.63685807 12.36328125 6.2109375 C14 8 14 8 15 11 C14.67 11.66 14.34 12.32 14 13 C13.34 13 12.68 13 12 13 C12 15.31 12 17.62 12 20 C11.67 20 11.34 20 11 20 C10.91363281 19.10796875 10.82726563 18.2159375 10.73828125 17.296875 C10.59777344 16.12640625 10.45726562 14.9559375 10.3125 13.75 C10.18488281 12.58984375 10.05726562 11.4296875 9.92578125 10.234375 C8.79642356 6.28877091 7.39391394 5.1936273 4 3 C2.68861096 2.29114106 1.36222983 1.60543548 0 1 C0 0.67 0 0.34 0 0 Z " fill="#D05356" transform="translate(49,2)"/>
<path d="M0 0 C0.66 0.33 1.32 0.66 2 1 C1.5 2.875 1.5 2.875 0 5 C-5.15437071 6.74724431 -9.59248339 7.22531319 -15 7 C-12.6133859 4.6133859 -10.67652265 4.03674402 -7.5 2.9375 C-3.68202376 1.62923207 -3.68202376 1.62923207 0 0 Z " fill="#D66D6F" transform="translate(26,63)"/>
<path d="M0 0 C0.33 0.99 0.66 1.98 1 3 C0.67 3.66 0.34 4.32 0 5 C-0.66 5 -1.32 5 -2 5 C-2 7.31 -2 9.62 -2 12 C-2.33 12 -2.66 12 -3 12 C-3.33 8.37 -3.66 4.74 -4 1 C-2 0 -2 0 0 0 Z " fill="#D76C6F" transform="translate(63,10)"/>
</svg>
