<?xml version="1.0" standalone="no"?>
<!DOCTYPE svg PUBLIC "-//W3C//DTD SVG 20010904//EN"
 "http://www.w3.org/TR/2001/REC-SVG-20010904/DTD/svg10.dtd">
<svg version="1.0" xmlns="http://www.w3.org/2000/svg"
 width="300.000000pt" height="70.000000pt" viewBox="0 0 300.000000 70.000000"
 preserveAspectRatio="xMidYMid meet">

<g transform="translate(0.000000,70.000000) scale(0.100000,-0.100000)"
fill="#000000" stroke="none">
<path d="M398 683 c12 -2 32 -2 45 0 12 2 2 4 -23 4 -25 0 -35 -2 -22 -4z"/>
<path d="M510 669 c122 -49 132 -201 23 -361 -37 -55 -112 -138 -124 -138 -4
0 -15 20 -25 44 l-19 45 -35 -21 c-55 -33 -56 -35 -22 -77 18 -22 32 -42 32
-45 0 -9 -85 -62 -135 -84 -27 -12 -44 -21 -36 -22 26 0 135 32 173 51 l39 20
31 -26 c25 -21 89 -55 104 -55 3 0 -14 23 -36 51 -22 28 -40 54 -40 57 0 4 31
39 69 79 89 92 132 177 139 271 6 94 -18 150 -84 192 -26 16 -55 30 -63 29 -9
0 -5 -5 9 -10z"/>
<path d="M268 653 c7 -3 16 -2 19 1 4 3 -2 6 -13 5 -11 0 -14 -3 -6 -6z"/>
<path d="M190 620 c-9 -6 -10 -10 -3 -10 6 0 15 5 18 10 8 12 4 12 -15 0z"/>
<path d="M116 494 c-12 -30 -6 -34 49 -34 30 0 55 -2 55 -5 0 -10 -79 -321
-86 -338 -5 -14 1 -17 38 -17 l44 0 49 180 49 180 53 0 c41 0 54 4 63 19 5 11
10 22 10 25 0 3 -72 6 -159 6 -136 0 -160 -2 -165 -16z"/>
<path d="M814 430 c-35 -14 -64 -59 -64 -100 0 -54 30 -87 98 -105 95 -27 104
-32 100 -63 -5 -47 -83 -54 -180 -17 -15 6 -18 1 -18 -29 0 -33 3 -36 42 -47
23 -6 75 -9 115 -7 62 3 77 7 98 29 30 30 42 88 26 127 -15 35 -50 56 -120 71
-30 6 -61 16 -68 23 -22 18 -15 48 15 59 26 10 46 9 120 -7 31 -6 32 -6 32 28
0 33 -3 36 -37 42 -52 8 -134 6 -159 -4z"/>
<path d="M1130 250 l0 -190 130 0 130 0 0 35 0 35 -85 0 -85 0 0 45 0 45 80 0
80 0 0 35 0 35 -80 0 -80 0 0 40 0 40 85 0 85 0 0 35 0 35 -130 0 -130 0 0
-190z"/>
<path d="M1585 429 c-72 -22 -115 -88 -115 -175 0 -121 71 -194 190 -194 31 0
71 5 89 11 27 9 31 16 31 45 0 38 -4 40 -40 19 -33 -19 -84 -19 -120 0 -83 43
-79 195 5 231 42 17 69 17 118 0 l37 -14 0 33 c0 28 -5 35 -31 44 -38 13 -122
13 -164 0z"/>
<path d="M1870 305 c0 -155 11 -193 62 -225 49 -29 153 -28 199 3 48 32 58 71
58 225 l1 132 -45 0 -45 0 0 -124 c0 -138 -8 -171 -44 -188 -33 -14 -82 5 -90
35 -3 12 -6 79 -6 150 l0 127 -45 0 -45 0 0 -135z"/>
<path d="M2290 250 l0 -190 45 0 45 0 0 70 c0 79 10 91 57 68 18 -8 40 -36 61
-76 33 -62 33 -62 78 -62 24 0 44 2 44 5 0 18 -74 147 -90 157 -18 12 -18 13
13 39 27 23 32 33 32 72 0 30 -6 52 -18 65 -24 26 -97 42 -192 42 l-75 0 0
-190z m184 104 c38 -37 7 -84 -55 -84 l-39 0 0 50 0 50 39 0 c23 0 46 -7 55
-16z"/>
<path d="M2690 250 l0 -190 130 0 130 0 0 35 0 35 -85 0 -85 0 0 45 0 45 80 0
80 0 0 35 0 35 -80 0 -80 0 0 40 0 40 85 0 85 0 0 35 0 35 -130 0 -130 0 0
-190z"/>
</g>
</svg>
