<?xml version="1.0" encoding="UTF-8"?>
<svg version="1.1" xmlns="http://www.w3.org/2000/svg" width="24" height="24">
<path d="M0 0 C7.92 0 15.84 0 24 0 C24 7.92 24 15.84 24 24 C16.08 24 8.16 24 0 24 C0 16.08 0 8.16 0 0 Z " fill="#F6EFEF" transform="translate(0,0)"/>
<path d="M0 0 C0.33 0.66 0.66 1.32 1 2 C2.32 2 3.64 2 5 2 C4.34 5.63 3.68 9.26 3 13 C3.99 13 4.98 13 6 13 C6 12.34 6 11.68 6 11 C6.99 11.33 7.98 11.66 9 12 C9 12.66 9 13.32 9 14 C2.5 17 2.5 17 -2 17 C-2.05383848 14.54137599 -2.09359038 12.0839245 -2.125 9.625 C-2.14175781 8.92632812 -2.15851563 8.22765625 -2.17578125 7.5078125 C-2.19344267 5.67102514 -2.10303261 3.83398037 -2 2 C-1.34 1.34 -0.68 0.68 0 0 Z " fill="#F9F9F9" transform="translate(2,7)"/>
<path d="M0 0 C0.33 0 0.66 0 1 0 C1.43112315 4.91480393 1.49648044 7.88224653 -1.375 12 C-2.24125 12.99 -3.1075 13.98 -4 15 C-4.66 15 -5.32 15 -6 15 C-5.01 16.65 -4.02 18.3 -3 20 C-7.62 20 -12.24 20 -17 20 C-14.38058783 18.25372522 -12.96175123 17.61277612 -10 17 C-10.33 15.35 -10.66 13.7 -11 12 C-10.01 11.67 -9.02 11.34 -8 11 C-7.34 11.66 -6.68 12.32 -6 13 C-1.8346779 6.98507527 -1.8346779 6.98507527 0 0 Z " fill="#CA2D32" transform="translate(21,4)"/>
<path d="M0 0 C0.33 0 0.66 0 1 0 C1 5.94 1 11.88 1 18 C-5 18 -5 18 -6.875 16.625 C-8 15 -8 15 -8 13 C-7.236875 12.29875 -6.47375 11.5975 -5.6875 10.875 C-2.39141811 7.34895891 -1.46719365 4.55602238 0 0 Z " fill="#FDFBFB" transform="translate(23,6)"/>
<path d="M0 0 C3.63 0 7.26 0 11 0 C10.67 0.99 10.34 1.98 10 3 C8.68 3 7.36 3 6 3 C5.7834375 4.60875 5.7834375 4.60875 5.5625 6.25 C5.16250558 8.91662949 4.72408076 11.41399729 4 14 C3.01 14 2.02 14 1 14 C2 5.42857143 2 5.42857143 3 2 C2.01 2 1.02 2 0 2 C0 1.34 0 0.68 0 0 Z " fill="#373536" transform="translate(4,6)"/>
<path d="M0 0 C4.29 0 8.58 0 13 0 C12.67 3.3 12.34 6.6 12 10 C11.67 10 11.34 10 11 10 C11 8.02 11 6.04 11 4 C7.34920174 2.38935371 3.9492568 1.55105909 0 1 C0 0.67 0 0.34 0 0 Z " fill="#F0CBCC" transform="translate(11,0)"/>
<path d="M0 0 C3.63 0 7.26 0 11 0 C8.62463329 1.58357781 6.23494336 3.11593693 3.8125 4.625 C3.09707031 5.07101563 2.38164063 5.51703125 1.64453125 5.9765625 C0.83048828 6.48316406 0.83048828 6.48316406 0 7 C0 4.69 0 2.38 0 0 Z " fill="#FEFEFE" transform="translate(0,0)"/>
<path d="M0 0 C0.66 0 1.32 0 2 0 C2 0.99 2 1.98 2 3 C2.804375 3.12375 3.60875 3.2475 4.4375 3.375 C5.7059375 3.684375 5.7059375 3.684375 7 4 C7.33 4.66 7.66 5.32 8 6 C3.38 6 -1.24 6 -6 6 C-3.38058783 4.25372522 -1.96175123 3.61277612 1 3 C0.67 2.01 0.34 1.02 0 0 Z " fill="#E29295" transform="translate(10,18)"/>
<path d="M0 0 C3.63 0 7.26 0 11 0 C10.67 0.99 10.34 1.98 10 3 C7.69 3.33 5.38 3.66 3 4 C3 3.34 3 2.68 3 2 C2.01 2 1.02 2 0 2 C0 1.34 0 0.68 0 0 Z " fill="#4E4D4D" transform="translate(4,6)"/>
</svg>
